<svg xmlns="http://www.w3.org/2000/svg" id="Layer_1" viewBox="0 0 512 512"><style>.st0{fill:#FFFFFF;}</style><path id="Circle" d="M256 108.1c77.2 0 139.8 62.6 139.8 139.8S333.2 387.6 256 387.6 116.2 325 116.2 247.8c0-77.1 62.5-139.7 139.8-139.7m0-17.9c-87.1 0-157.6 70.6-157.6 157.7 0 63.3 37.9 120.5 96.2 145.1 80.5 33.2 172.6-5.1 205.9-85.6 32.8-79.5-4.2-170.7-83.1-204.9-19.5-8.2-40.3-12.4-61.4-12.3z" class="st0"/><g id="Logo"><path d="M121.1 257.4c-1.5 0-3 .1-4.5.2-24.2 26.6-54.4 53.2-91.9 78.6 0 0 15 41.6 42.6 65.5 0 0 44.4-25.8 107.2-40.5 14.1-18.6 15.5-46.8 1.5-70.5-12.6-21.1-34.1-33.3-54.9-33.3zM256 151.8c25.1 0 46.9-12.8 57.2-31.5-20.5-61.6-15.8-105.7-15.8-105.7-19.4-6.1-41.6-6.1-41.6-6.1s-22.1 0-41.6 6.1c0 0 4.8 44-15.8 105.7 10.7 18.7 32.5 31.5 57.6 31.5zm139.4 105.9c-1.5-.1-2.9-.2-4.5-.2-20.9 0-42.4 12.1-54.9 33.3-14 23.8-12.7 51.9 1.5 70.5 62.8 14.6 107.2 40.5 107.2 40.5 27.5-23.9 42.6-65.5 42.6-65.5-37.5-25.4-67.7-52.1-91.9-78.6z" class="st0"/><path d="M327.6 285.7c13.1-22.2 35.4-36.5 59.1-38-34.8-40.5-56.1-80.5-69.3-115.7-2.9 3.9-6.2 7.5-9.8 10.6-13.9 12.2-32.2 18.9-51.6 18.9s-37.7-6.7-51.6-18.9c-3.6-3.2-6.9-6.8-9.8-10.6-13.1 35.1-34.6 75.2-69.3 115.7 23.6 1.6 46 15.8 59.1 38 9.9 16.7 13.4 36 9.9 54-1.2 6.5-3.4 12.8-6.4 18.6 22.4-4.5 45.3-6.8 68.2-6.9 22.9.1 45.7 2.4 68.2 6.9-3-5.9-5.2-12.1-6.4-18.6-3.7-18-.1-37.2 9.7-54zM256 311.3c-34.8 0-62.9-28.2-62.9-62.9s28.2-62.9 62.9-62.9 62.9 28.2 62.9 62.9c0 34.8-28.1 62.9-62.9 62.9z" class="st0"/></g></svg>