<svg xmlns="http://www.w3.org/2000/svg" id="Layer_1" viewBox="0 0 300 300"><style>.st0{fill:#FFFFFF;} .st1{fill:none;}</style><g id="Eyes_Rounded"><path d="M39.9.6C50.8.5 61.8.6 72.7.6v72.2H.6c0-10.9-.1-21.9 0-32.9.3-10.4 2.8-21.5 10.3-29C18.4 3.3 29.5.9 39.9.6m-9.1 11.1c-10.2 2.2-18.3 11.1-19.7 21.4-1.7 10 3.6 20.7 12.5 25.8 7.6 4.6 17.7 4.7 25.6.4 7.1-3.9 12.2-11.4 13.1-19.6 1-8.1-2.2-16.5-8.4-22-6.2-5.6-15.1-7.9-23.1-6z" class="st0"/><path d="M30.9 22.4c8-3.4 18.2 1.7 20.5 10 2.5 8-2.7 17.2-10.8 19.2-7.9 2.4-17-2.9-18.9-10.9-2.3-7.4 2.1-15.7 9.2-18.3zM227.3.6c11.6 0 23-.1 34.6.1 10 .4 20.7 2.2 28.6 8.8 6.1 5.1 8.9 13.2 8.9 21 .1 14.1 0 28.2 0 42.3h-72.1V.6m27.6 11.9c-9.3 3.2-16.4 12.1-17.2 21.9-1.1 10 4.3 20.2 13.2 25 9.7 5.5 22.6 3.7 30.4-4.2 7.6-7.2 9.9-19.4 5.3-29.1-5-11.9-19.7-18.1-31.7-13.6z" class="st0"/><path d="M257.4 22.5c8-3.6 18.2 1.1 20.6 9.4 2.9 8.1-2.4 17.8-10.8 19.7-7.6 2.2-16.3-2.7-18.6-10.2-2.5-7.3 1.6-16.1 8.8-18.9zM.5 227.4h72.1v72.1c-14 .1-28.1 0-42.1 0-7.9 0-16.1-2.7-21.2-8.9-6.7-8-8.4-18.9-8.8-29.1-.1-11.5 0-22.8 0-34.1m29.4 11.2c-8.8 2.3-16.1 9.7-18.3 18.4-2.4 9.2.8 19.6 8 25.8 6.6 5.8 16.5 7.9 24.9 5 9-2.9 16.1-11.3 17.3-20.7 1.3-8.5-2-17.5-8.5-23-6.1-5.6-15.3-7.7-23.4-5.5z" class="st0"/><path d="M32.4 248.6c8-2.4 17.2 2.8 19.1 10.9 2.4 8.3-3.4 17.7-11.9 19.1-8.3 1.9-17.2-4.4-18.2-13-1.3-7.4 3.8-15.2 11-17z" class="st0"/></g><g id="Logo_1_"><g id="Logo"><path d="M172.6 152.7c.3-1.3.4-2.5.4-3.8 0-3.1-.6-6.1-1.8-8.9-1.1-2.8-2.8-5.2-5-7.2-2.2-2.2-4.6-3.8-7.2-5-.5-.3-1-.4-1.5-.5-1.9-7.2-1.4-12.2-1.4-12.2-2.8-.9-6.1-.9-6.1-.9s-3.2 0-6.1.9c0 0 .5 5-1.4 12.2-.5.1-1 .4-1.5.5-2.8 1.1-5.2 2.8-7.2 5-2.2 2.2-3.8 4.6-5 7.2-1.1 2.8-1.8 5.8-1.8 8.9 0 1.3.1 2.5.4 3.8-3.1 3.1-6.7 6.1-11.1 9 0 0 2.2 6.1 6.2 9.5 0 0 5.1-2.9 12.5-5.1 1.8 1.5 3.8 2.9 6.1 3.8 2.8 1.1 5.8 1.8 8.9 1.8 3.1 0 6.1-.6 8.9-1.8 2.3-.9 4.3-2.3 6.1-3.8 7.5 2.2 12.5 5.1 12.5 5.1 4.1-3.4 6.2-9.5 6.2-9.5-4.3-2.9-8-6-11.1-9zm-2.3-2.4h-.6c-3.1 0-6.2 1.8-8 4.8-2 3.4-1.9 7.5.3 10.3-3.3 2.4-7.5 3.8-11.9 3.8s-8.5-1.4-11.9-3.8c2-2.7 2.3-6.9.3-10.3-1.8-3.1-5-4.8-8-4.8h-.6c0-.5-.1-.9-.1-1.4 0-8.3 5-15.4 12.1-18.6 1.5 2.7 4.7 4.6 8.4 4.6s6.9-1.9 8.4-4.6c7.1 3.2 12.1 10.3 12.1 18.6-.5.5-.5 1-.5 1.4z" class="st0"/><path d="M157.5 133.6c-2 1.8-4.7 2.8-7.5 2.8s-5.5-1-7.5-2.8c-.5-.5-1-1-1.4-1.5-1.9 5.1-5.1 10.9-10 16.9 3.4.3 6.7 2.3 8.6 5.6 1.4 2.4 1.9 5.2 1.4 7.9-.1 1-.5 1.9-.9 2.7 3.1-.6 6.5-1 9.9-1 3.4 0 6.9.4 9.9 1-.4-.9-.8-1.8-.9-2.7-.5-2.7 0-5.5 1.4-7.9 1.9-3.2 5.2-5.3 8.6-5.6-5.1-5.8-8.1-11.7-10-16.9-.6.5-1.1 1-1.6 1.5zm-7.5 24.5c-5.1 0-9.2-4.1-9.2-9.2s4.1-9.2 9.2-9.2 9.2 4.1 9.2 9.2-4.1 9.2-9.2 9.2z" class="st0"/></g></g><path d="M197 40.7h8.9v-8.9H197v8.9zm-73.7 1.2h-8.9v10.2h8.9V41.9zM103 52.1h-8.9v20.3h8.9V52.1zm62.3-20.3h-10.2v8.9h10.2v-8.9zm30.5-11.5H206v-8.9h-19.1v10.2h-10.2v8.9h19.1V20.3zM62.3 185.6h10.2v-8.9H62.3v8.9zm11.4 10.2h8.9v-8.9h-8.9v8.9zm-41.9-40.7h20.3v20.3h10.2v-10.2h10.2v-8.9H62.3v-11.4H31.8v10.2zm52.1 10.2h8.9v-8.9h-8.9v8.9zm-21.6-20.4h10.2v-10.2H62.3v10.2zm0-41.9h10.2v-8.9H62.3v8.9zm21.6 82.6h8.9v-8.9h-8.9v8.9zm50.8 0h3.1c-1-.4-2.1-.8-3.1-1.2v1.2zm-20.3-19.1v10.2h-10.2v8.9h19.1v-9.1c-2.9-2.9-5.3-6.3-7.1-10h-1.8zm20.3-52.1v1.2c1-.4 2-.8 3.1-1.2h-3.1zm31.8 71.2h19.1v-8.9h-9.1c-2.9 2.9-6.3 5.3-10 7.1v1.8zm17.9-20.3h11.4v-10.2H206v-10.2h-10.2v-20.3h-8.9v17.9c.5 2.4.8 5 .8 7.6-.1 5.3-1.2 10.5-3.3 15.2zm53.3-30.6v10.2h10.2v-10.2h-10.2zm-124.6 7.7v-9h3.1c1.6-3.3 3.6-6.3 6.1-8.9h-9.1V94H94.1v19.1h10.2v11.4H94.1v20.3h10.2v20.3h8.9v-7.7c-.5-2.4-.8-5-.8-7.6s.2-4.9.7-7.4zm63.6-19.1h8.9v-8.9h-8.9v8.9zm10.2-61h10.2v10.2h8.9V52.2h-19.1v10.1zm-42 125v8.5h10.2v-8.5c-1.7.2-3.4.4-5.1.4s-3.4-.2-5.1-.4zm92.8-20.8H197v8.9h10.2v11.4H197v19.1h29.2v-19.1H216v-11.4h41.9v-8.9h-10.2v-10.2h-10.2c.2 3.5.2 6.8.2 10.2zM197 258.1h8.9v-8.9H197v8.9zm71.2-50.9h-8.9v8.9h8.9v-8.9zm-41.9-62.3h-8.9v10.2h8.9v-10.2zm10.1-20.3h-8.9v8.9h8.9v-8.9zm-20.3-20.4h-29.2v8.9h29.2v-8.9zm1.3 143.7h30.5v-30.5h-30.5v30.5zm8.9-21.6h11.4v11.4h-11.4v-11.4zm1.2 41.9h8.9v-8.9h-8.9v8.9zm20.4 0h10.2v-8.9h-10.2v8.9zm-133.5-50.8H103v-30.5h-8.9v50.8h8.9v-11.4h30.5v-8.9h-10.2V206h20.3v-8.9h-29.2v20.3zm-30.5-94.1h8.9v-8.9h-8.9v8.9zm71.2 83.9h-10.2v8.9h10.2v-8.9zM103 166.5h-8.9v8.9h8.9v-8.9zm-8.9 111.9h19.1v-19.1H94.1v19.1zm194.5-71.2h-8.9v8.9h8.9v-8.9zm-133.5 19.1h10.2v-8.9h-10.2v8.9zm11.4-10.2h8.9v-10.2h10.2V197h-19.1v19.1zm20.4 0h8.9v-8.9h-8.9v8.9zm-20.4 21.6h8.9v-10.2h-8.9v10.2z" class="st1"/><path d="M92.8 21.6h11.4V0H82.6v11.4h10.2v10.2zm20.3 120.8c.6-3.1 1.7-6.1 3.1-9h-3.1v9z" class="st0"/><path d="M289.8 113.1h-11.4v10.2h-8.9v-10.2h-11.4v11.4h10.2v8.9H248v-29.2h31.8V92.8h-20.3V82.6h-22.9v10.2H187V82.6h-11.4v10.2h-8.9V82.6h-22.9V94h21.6v19.1h-7.7c14.7 3 26.3 14.6 29.3 29.3v-17.9h8.9v20.3h10.2V155h-10.2v10.2h-11.4c-1.9 4.3-4.6 8.2-7.9 11.4h9.1v8.9h-19.1v-1.8c-3.5 1.7-7.4 2.9-11.4 3.5v8.5H145v-8.5c-2.5-.3-4.8-.9-7.1-1.7h-3.1v-1.2c-4.3-1.9-8.2-4.6-11.4-7.9v9.1h-19.1v-8.9h10.2v-10.2h1.8c-1.4-2.8-2.4-5.8-3.1-9v7.7h-8.9v-20.3H94.1v-20.3h10.2v-11.4H94.1V94h19.1v30.5h9.1c3.5-3.8 7.7-6.9 12.5-9v-1.2h3.1c3.8-1.3 7.9-2 12.2-2 1.7 0 3.4.1 5.1.4v-9.8h-30.5V82.6h-10.2V63.5h8.9v10.2h11.4V41.9h20.3v10.2h20.3v10.2h-10.2v11.4h11.4V63.5h8.9v10.2h10.2v10.2h21.6V30.5h-10.2v-8.9h10.2V0h-31.8v10.2h-10.2v10.2h-8.9V.1h-22.9v11.4h11.4v19.1h-10.2V20.4h-10.2V10.2h-10.2V0h-11.4v21.6h10.2v8.9h-10.2v10.2H104V30.5H92.6v10.2H82.4v33.1h10.2v19.1h-8.9V82.7H10v11.4h10.2v10.2h11.4V94.1h8.9v10.2h10.2v10.2h21.6v8.9H62.1v10.2H31.6v-20.3H20.2v10.2H10v21.6h10.2v30.5H-.1v41.9h11.4V187h20.3v-10.2h8.9v19.1H20.2v11.4h10.2v10.2H52v-11.4H41.8v-8.9h30.5v8.9H62.1v11.4h11.4v-10.2h8.9v82.6h20.3v10.2h11.4v-10.2h8.9v10.2h11.4v-11.4h-10.2v-50.8h10.2v-10.2h8.9v10.2h21.6v10.2h-21.6v10.2h-10.2v21.6h11.4v-10.2h31.8v-11.4h-10.2v-8.9h10.2V238h10.2v-10.2h8.9v20.3h-10.2v31.8h20.3v8.9h-10.2v11.4h11.4V290h10.2v-10.2h30.5v20.3h11.4v-10.2h8.9v10.2h11.4v-10.2h10.2v-21.6h-11.4v20.3H269v-29.2h20.3V248H269v-10.2h-10.2v-10.2H269v-10.2h8.9v10.2h21.6v-31.8h-21.6V206H269v-10.2h-11.4V206h-20.3v-19.1h31.8v-10.2h8.9v10.2h21.6v-11.4h-20.3v-10.2h-10.2v-10.2h-21.6v-10.2h-10.2v-10.2h10.2v10.2h21.6v-10.2h8.9v10.2h21.6v-21.6h-10.2c.4-3.4.4-6.7.4-10.2zm-104.2 10.2h-8.9v-8.9h8.9v8.9zm20.3-50.8H197V62.3h-10.2V52.1h19.1v20.4zm0-31.8H197v-8.9h8.9v8.9zm-29.2-19.1h10.2V11.4H206v8.9h-10.2v10.2h-19.1v-8.9zm-21.6 10.2h10.2v8.9h-10.2v-8.9zm-40.7 10.1h8.9v10.2h-8.9V41.9zM94.1 52.1h8.9v20.3h-8.9V52.1zM72.5 185.6H62.3v-8.9h10.2v8.9zm0-40.7H62.3v11.4h10.2v8.9H62.3v10.2H52.1v-20.3H31.8v-10.2h30.5v-10.2h10.2v10.2zm0-41.9H62.3v-8.9h10.2v8.9zm10.1 92.8h-8.9v-8.9h8.9v8.9zm10.2-10.2h-8.9v-8.9h8.9v8.9zm0-20.3h-8.9v-8.9h8.9v8.9zm0-42h-8.9v-8.9h8.9v8.9zm1.3 43.2h8.9v8.9h-8.9v-8.9zm19 111.9H94v-19.1h19.1v19.1zm30.5-72.5h-20.3v11.4h10.2v8.9H103v11.4h-8.9v-50.8h8.9v30.5h11.4V197h29.2v8.9zm1.3 1.3h10.2v8.9h-10.2v-8.9zm20.4 19.1h-10.2v-8.9h10.2v8.9zm10.1 11.4h-8.9v-10.2h8.9v10.2zm10.2-31.8h-10.2v10.2h-8.9V197h19.1v8.9zm10.2 10.2h-8.9v-8.9h8.9v8.9zm83.9-8.9h8.9v8.9h-8.9v-8.9zm-20.4 0h8.9v8.9h-8.9v-8.9zm-31.8-82.6h8.9v8.9h-8.9v-8.9zm-10.1 20.3h8.9v10.2h-8.9v-10.2zm-30.5-31.8v-8.9h29.2v8.9h-29.2zm19 145H197v-8.9h8.9v8.9zm30.5 10.1h-8.9v-8.9h8.9v8.9zm21.7 0h-10.2v-8.9h10.2v8.9zm-10.2-50.8v30.5h-30.5v-30.5h30.5zm0-61v10.2h10.2v8.9h-41.9v11.4h10.2V206h-29.2v-19.1h10.2v-11.4h-10.2v-8.9h40.7v-10.2h10z" class="st0"/><path d="M143.6 73.7H155V52.1h-11.4v21.6zm145 8.9v21.6H300V82.6h-11.4zM11.4 103H0v11.4h11.4V103zm0 52.1H0v11.4h11.4v-11.4zm226.3 71.2h-11.4v11.4h11.4v-11.4zm-61 52.1h-11.4v11.4h10.2V300h11.4v-11.4h-10.2v-10.2zM143.6 300H155v-11.4h-11.4V300zm82.7 0h11.4v-11.4h-11.4V300z" class="st0"/></svg>